<mxfile host="app.diagrams.net" modified="2023-04-22T18:03:29.750Z" agent="Mozilla/5.0 (Windows NT 10.0; Win64; x64) AppleWebKit/537.36 (KHTML, like Gecko) Chrome/112.0.0.0 Safari/537.36" etag="VYBdjBidciFmXrZa-ohq" version="21.1.1" type="device">
  <diagram name="Page-1" id="sGzxX93xdV-w-MH2Fxeq">
    <mxGraphModel dx="1000" dy="490" grid="1" gridSize="10" guides="1" tooltips="1" connect="1" arrows="1" fold="1" page="1" pageScale="1" pageWidth="1169" pageHeight="827" math="0" shadow="0">
      <root>
        <mxCell id="0" />
        <mxCell id="1" parent="0" />
        <mxCell id="5-P8dXUu2r8xgCgaxNXc-20" value="" style="group;strokeColor=none;" parent="1" vertex="1" connectable="0">
          <mxGeometry x="620" y="10" width="120" height="120" as="geometry" />
        </mxCell>
        <mxCell id="5-P8dXUu2r8xgCgaxNXc-19" value="" style="rounded=0;whiteSpace=wrap;html=1;strokeColor=none;" parent="5-P8dXUu2r8xgCgaxNXc-20" vertex="1">
          <mxGeometry width="120" height="120" as="geometry" />
        </mxCell>
        <mxCell id="5-P8dXUu2r8xgCgaxNXc-9" value="Client" style="image;aspect=fixed;perimeter=ellipsePerimeter;html=1;align=center;shadow=0;dashed=0;spacingTop=3;image=img/lib/active_directory/laptop_client.svg;" parent="5-P8dXUu2r8xgCgaxNXc-20" vertex="1">
          <mxGeometry x="28.5" y="20" width="63" height="70" as="geometry" />
        </mxCell>
        <mxCell id="5-P8dXUu2r8xgCgaxNXc-28" value="" style="group" parent="1" vertex="1" connectable="0">
          <mxGeometry x="30" y="10" width="120" height="120" as="geometry" />
        </mxCell>
        <mxCell id="5-P8dXUu2r8xgCgaxNXc-26" value="" style="rounded=0;whiteSpace=wrap;html=1;strokeColor=none;" parent="5-P8dXUu2r8xgCgaxNXc-28" vertex="1">
          <mxGeometry width="120" height="120" as="geometry" />
        </mxCell>
        <mxCell id="5-P8dXUu2r8xgCgaxNXc-4" value="Web Server" style="image;aspect=fixed;perimeter=ellipsePerimeter;html=1;align=center;shadow=0;dashed=0;spacingTop=3;image=img/lib/active_directory/web_server.svg;" parent="5-P8dXUu2r8xgCgaxNXc-28" vertex="1">
          <mxGeometry x="32" y="10" width="56" height="70" as="geometry" />
        </mxCell>
        <mxCell id="5-P8dXUu2r8xgCgaxNXc-29" style="edgeStyle=orthogonalEdgeStyle;rounded=0;orthogonalLoop=1;jettySize=auto;html=1;endArrow=open;endFill=0;" parent="1" source="5-P8dXUu2r8xgCgaxNXc-26" target="5-P8dXUu2r8xgCgaxNXc-19" edge="1">
          <mxGeometry relative="1" as="geometry">
            <Array as="points">
              <mxPoint x="220" y="70" />
              <mxPoint x="220" y="70" />
            </Array>
          </mxGeometry>
        </mxCell>
        <mxCell id="5-P8dXUu2r8xgCgaxNXc-33" value="Serve Static Files" style="edgeLabel;html=1;align=center;verticalAlign=middle;resizable=0;points=[];" parent="5-P8dXUu2r8xgCgaxNXc-29" vertex="1" connectable="0">
          <mxGeometry x="-0.1248" y="-1" relative="1" as="geometry">
            <mxPoint y="11" as="offset" />
          </mxGeometry>
        </mxCell>
        <mxCell id="5-P8dXUu2r8xgCgaxNXc-30" style="edgeStyle=orthogonalEdgeStyle;rounded=0;orthogonalLoop=1;jettySize=auto;html=1;endArrow=open;endFill=0;" parent="1" source="5-P8dXUu2r8xgCgaxNXc-19" target="5-P8dXUu2r8xgCgaxNXc-26" edge="1">
          <mxGeometry relative="1" as="geometry">
            <Array as="points">
              <mxPoint x="190" y="50" />
              <mxPoint x="190" y="50" />
            </Array>
          </mxGeometry>
        </mxCell>
        <mxCell id="5-P8dXUu2r8xgCgaxNXc-32" value="Request Web Page" style="edgeLabel;html=1;align=center;verticalAlign=middle;resizable=0;points=[];" parent="5-P8dXUu2r8xgCgaxNXc-30" vertex="1" connectable="0">
          <mxGeometry x="0.6658" relative="1" as="geometry">
            <mxPoint x="-68" y="-10" as="offset" />
          </mxGeometry>
        </mxCell>
        <mxCell id="5-P8dXUu2r8xgCgaxNXc-41" style="edgeStyle=orthogonalEdgeStyle;rounded=0;orthogonalLoop=1;jettySize=auto;html=1;startArrow=open;startFill=0;endArrow=open;endFill=0;" parent="1" target="5-P8dXUu2r8xgCgaxNXc-38" edge="1">
          <mxGeometry relative="1" as="geometry">
            <mxPoint x="560" y="680" as="sourcePoint" />
            <Array as="points">
              <mxPoint x="560" y="760" />
            </Array>
          </mxGeometry>
        </mxCell>
        <mxCell id="5-P8dXUu2r8xgCgaxNXc-42" value="Query Communication" style="edgeLabel;html=1;align=center;verticalAlign=middle;resizable=0;points=[];" parent="5-P8dXUu2r8xgCgaxNXc-41" vertex="1" connectable="0">
          <mxGeometry x="0.3325" y="-1" relative="1" as="geometry">
            <mxPoint x="-20" y="-11" as="offset" />
          </mxGeometry>
        </mxCell>
        <mxCell id="5-P8dXUu2r8xgCgaxNXc-40" value="" style="group;flipV=1;" parent="1" vertex="1" connectable="0">
          <mxGeometry x="710" y="720" width="101" height="93" as="geometry" />
        </mxCell>
        <mxCell id="5-P8dXUu2r8xgCgaxNXc-38" value="" style="rounded=0;whiteSpace=wrap;html=1;strokeColor=none;" parent="5-P8dXUu2r8xgCgaxNXc-40" vertex="1">
          <mxGeometry width="101" height="93" as="geometry" />
        </mxCell>
        <mxCell id="5-P8dXUu2r8xgCgaxNXc-2" value="SQL Server" style="image;aspect=fixed;perimeter=ellipsePerimeter;html=1;align=center;shadow=0;dashed=0;spacingTop=3;image=img/lib/active_directory/sql_server.svg;" parent="5-P8dXUu2r8xgCgaxNXc-40" vertex="1">
          <mxGeometry x="26.20108333333333" y="15.5" width="44.75625" height="58.125" as="geometry" />
        </mxCell>
        <mxCell id="5-P8dXUu2r8xgCgaxNXc-48" style="edgeStyle=orthogonalEdgeStyle;rounded=0;orthogonalLoop=1;jettySize=auto;html=1;endArrow=open;endFill=0;" parent="1" source="yC45AnXQLOmFysV5crVu-2" target="5-P8dXUu2r8xgCgaxNXc-19" edge="1">
          <mxGeometry relative="1" as="geometry">
            <Array as="points">
              <mxPoint x="680" y="220" />
              <mxPoint x="680" y="220" />
            </Array>
            <mxPoint x="600" y="210" as="sourcePoint" />
          </mxGeometry>
        </mxCell>
        <mxCell id="5-P8dXUu2r8xgCgaxNXc-52" value="JSON Response" style="edgeLabel;html=1;align=center;verticalAlign=middle;resizable=0;points=[];" parent="5-P8dXUu2r8xgCgaxNXc-48" vertex="1" connectable="0">
          <mxGeometry x="0.2604" y="2" relative="1" as="geometry">
            <mxPoint x="13" y="-11" as="offset" />
          </mxGeometry>
        </mxCell>
        <mxCell id="5-P8dXUu2r8xgCgaxNXc-46" style="edgeStyle=orthogonalEdgeStyle;rounded=0;orthogonalLoop=1;jettySize=auto;html=1;endArrow=open;endFill=0;startArrow=none;startFill=0;entryX=0.198;entryY=-0.009;entryDx=0;entryDy=0;entryPerimeter=0;" parent="1" source="5-P8dXUu2r8xgCgaxNXc-19" target="yC45AnXQLOmFysV5crVu-2" edge="1">
          <mxGeometry relative="1" as="geometry">
            <Array as="points">
              <mxPoint x="630" y="150" />
              <mxPoint x="237" y="150" />
            </Array>
          </mxGeometry>
        </mxCell>
        <mxCell id="5-P8dXUu2r8xgCgaxNXc-49" value="AJAX Request" style="edgeLabel;html=1;align=center;verticalAlign=middle;resizable=0;points=[];" parent="5-P8dXUu2r8xgCgaxNXc-46" vertex="1" connectable="0">
          <mxGeometry x="-0.2271" y="1" relative="1" as="geometry">
            <mxPoint x="10" y="-9" as="offset" />
          </mxGeometry>
        </mxCell>
        <mxCell id="5-P8dXUu2r8xgCgaxNXc-50" value="" style="group" parent="1" vertex="1" connectable="0">
          <mxGeometry x="30" y="170" width="1129" height="540" as="geometry" />
        </mxCell>
        <mxCell id="5-P8dXUu2r8xgCgaxNXc-17" value="REST API Server" style="shape=umlFrame;whiteSpace=wrap;html=1;pointerEvents=0;width=100;height=30;dashed=1;" parent="5-P8dXUu2r8xgCgaxNXc-50" vertex="1">
          <mxGeometry width="1129" height="540" as="geometry" />
        </mxCell>
        <mxCell id="Eyq4GIK9O7bGHYeJGgFn-47" value="primitives/model" style="edgeLabel;html=1;align=center;verticalAlign=middle;resizable=0;points=[];" vertex="1" connectable="0" parent="5-P8dXUu2r8xgCgaxNXc-50">
          <mxGeometry x="260.6924671814672" y="211" as="geometry" />
        </mxCell>
        <mxCell id="Eyq4GIK9O7bGHYeJGgFn-48" value="&lt;span style=&quot;color: rgb(0, 0, 0); font-family: Helvetica; font-size: 11px; font-style: normal; font-variant-ligatures: normal; font-variant-caps: normal; font-weight: 400; letter-spacing: normal; orphans: 2; text-align: center; text-indent: 0px; text-transform: none; widows: 2; word-spacing: 0px; -webkit-text-stroke-width: 0px; background-color: rgb(255, 255, 255); text-decoration-thickness: initial; text-decoration-style: initial; text-decoration-color: initial; float: none; display: inline !important;&quot;&gt;response&lt;/span&gt;" style="text;whiteSpace=wrap;html=1;" vertex="1" parent="5-P8dXUu2r8xgCgaxNXc-50">
          <mxGeometry x="650.9549549549549" y="200" width="111.88288288288287" height="40" as="geometry" />
        </mxCell>
        <mxCell id="Eyq4GIK9O7bGHYeJGgFn-49" value="primitive/dto" style="text;whiteSpace=wrap;html=1;" vertex="1" parent="5-P8dXUu2r8xgCgaxNXc-50">
          <mxGeometry x="650.9549549549549" y="360" width="122.05405405405403" height="40" as="geometry" />
        </mxCell>
        <mxCell id="Eyq4GIK9O7bGHYeJGgFn-50" value="&lt;span style=&quot;color: rgb(0, 0, 0); font-family: Helvetica; font-size: 11px; font-style: normal; font-variant-ligatures: normal; font-variant-caps: normal; font-weight: 400; letter-spacing: normal; orphans: 2; text-align: center; text-indent: 0px; text-transform: none; widows: 2; word-spacing: 0px; -webkit-text-stroke-width: 0px; background-color: rgb(255, 255, 255); text-decoration-thickness: initial; text-decoration-style: initial; text-decoration-color: initial; float: none; display: inline !important;&quot;&gt;DBContext Query&lt;/span&gt;" style="text;whiteSpace=wrap;html=1;" vertex="1" parent="5-P8dXUu2r8xgCgaxNXc-50">
          <mxGeometry x="220.00342342342338" y="350" width="81.36936936936937" height="40" as="geometry" />
        </mxCell>
        <mxCell id="Eyq4GIK9O7bGHYeJGgFn-61" value="" style="group" vertex="1" connectable="0" parent="5-P8dXUu2r8xgCgaxNXc-50">
          <mxGeometry x="986.6" y="230" width="130" height="280" as="geometry" />
        </mxCell>
        <mxCell id="Eyq4GIK9O7bGHYeJGgFn-62" value="ExternalServices" style="shape=umlFrame;whiteSpace=wrap;html=1;pointerEvents=0;width=100;height=30;dashed=1;" vertex="1" parent="Eyq4GIK9O7bGHYeJGgFn-61">
          <mxGeometry width="129.99999999999997" height="280" as="geometry" />
        </mxCell>
        <mxCell id="Eyq4GIK9O7bGHYeJGgFn-80" value="PaymentAdapter" style="swimlane;fontStyle=1;align=center;verticalAlign=top;childLayout=stackLayout;horizontal=1;startSize=26;horizontalStack=0;resizeParent=1;resizeParentMax=0;resizeLast=0;collapsible=1;marginBottom=0;" vertex="1" parent="Eyq4GIK9O7bGHYeJGgFn-61">
          <mxGeometry x="3.89" y="40" width="122.23" height="82" as="geometry" />
        </mxCell>
        <mxCell id="Eyq4GIK9O7bGHYeJGgFn-81" value="DeliveryAdapter" style="swimlane;fontStyle=1;align=center;verticalAlign=top;childLayout=stackLayout;horizontal=1;startSize=26;horizontalStack=0;resizeParent=1;resizeParentMax=0;resizeLast=0;collapsible=1;marginBottom=0;" vertex="1" parent="Eyq4GIK9O7bGHYeJGgFn-61">
          <mxGeometry x="3.8899999999999864" y="180" width="122.23" height="82" as="geometry" />
        </mxCell>
        <mxCell id="yC45AnXQLOmFysV5crVu-1" value="" style="group" parent="1" vertex="1" connectable="0">
          <mxGeometry x="49" y="240" width="951" height="120" as="geometry" />
        </mxCell>
        <mxCell id="yC45AnXQLOmFysV5crVu-2" value="APIControllers" style="shape=umlFrame;whiteSpace=wrap;html=1;pointerEvents=0;width=100;height=30;dashed=1;" parent="yC45AnXQLOmFysV5crVu-1" vertex="1">
          <mxGeometry width="950.9999999999998" height="120" as="geometry" />
        </mxCell>
        <mxCell id="Eyq4GIK9O7bGHYeJGgFn-7" value="EventControllers" style="swimlane;fontStyle=1;align=center;verticalAlign=top;childLayout=stackLayout;horizontal=1;startSize=26;horizontalStack=0;resizeParent=1;resizeParentMax=0;resizeLast=0;collapsible=1;marginBottom=0;" vertex="1" parent="yC45AnXQLOmFysV5crVu-1">
          <mxGeometry x="121" y="10" width="189" height="42" as="geometry" />
        </mxCell>
        <mxCell id="Eyq4GIK9O7bGHYeJGgFn-18" value="ManagerControllers" style="swimlane;fontStyle=1;align=center;verticalAlign=top;childLayout=stackLayout;horizontal=1;startSize=26;horizontalStack=0;resizeParent=1;resizeParentMax=0;resizeLast=0;collapsible=1;marginBottom=0;" vertex="1" parent="yC45AnXQLOmFysV5crVu-1">
          <mxGeometry x="121" y="60" width="189" height="40" as="geometry" />
        </mxCell>
        <mxCell id="Eyq4GIK9O7bGHYeJGgFn-25" value="MemberControllers" style="swimlane;fontStyle=1;align=center;verticalAlign=top;childLayout=stackLayout;horizontal=1;startSize=26;horizontalStack=0;resizeParent=1;resizeParentMax=0;resizeLast=0;collapsible=1;marginBottom=0;" vertex="1" parent="yC45AnXQLOmFysV5crVu-1">
          <mxGeometry x="331" y="10" width="189" height="42" as="geometry" />
        </mxCell>
        <mxCell id="Eyq4GIK9O7bGHYeJGgFn-26" value="NotificationControllers" style="swimlane;fontStyle=1;align=center;verticalAlign=top;childLayout=stackLayout;horizontal=1;startSize=26;horizontalStack=0;resizeParent=1;resizeParentMax=0;resizeLast=0;collapsible=1;marginBottom=0;" vertex="1" parent="yC45AnXQLOmFysV5crVu-1">
          <mxGeometry x="331" y="60" width="189" height="40" as="geometry" />
        </mxCell>
        <mxCell id="Eyq4GIK9O7bGHYeJGgFn-27" value="PurchaseControllers" style="swimlane;fontStyle=1;align=center;verticalAlign=top;childLayout=stackLayout;horizontal=1;startSize=26;horizontalStack=0;resizeParent=1;resizeParentMax=0;resizeLast=0;collapsible=1;marginBottom=0;" vertex="1" parent="yC45AnXQLOmFysV5crVu-1">
          <mxGeometry x="541" y="10" width="189" height="42" as="geometry" />
        </mxCell>
        <mxCell id="Eyq4GIK9O7bGHYeJGgFn-28" value="ReviewControllers" style="swimlane;fontStyle=1;align=center;verticalAlign=top;childLayout=stackLayout;horizontal=1;startSize=26;horizontalStack=0;resizeParent=1;resizeParentMax=0;resizeLast=0;collapsible=1;marginBottom=0;" vertex="1" parent="yC45AnXQLOmFysV5crVu-1">
          <mxGeometry x="541" y="60" width="189" height="40" as="geometry" />
        </mxCell>
        <mxCell id="Eyq4GIK9O7bGHYeJGgFn-29" value="ShoppingCartControllers" style="swimlane;fontStyle=1;align=center;verticalAlign=top;childLayout=stackLayout;horizontal=1;startSize=26;horizontalStack=0;resizeParent=1;resizeParentMax=0;resizeLast=0;collapsible=1;marginBottom=0;" vertex="1" parent="yC45AnXQLOmFysV5crVu-1">
          <mxGeometry x="751" y="10" width="189" height="42" as="geometry" />
        </mxCell>
        <mxCell id="Eyq4GIK9O7bGHYeJGgFn-30" value="StoreControllers" style="swimlane;fontStyle=1;align=center;verticalAlign=top;childLayout=stackLayout;horizontal=1;startSize=26;horizontalStack=0;resizeParent=1;resizeParentMax=0;resizeLast=0;collapsible=1;marginBottom=0;" vertex="1" parent="yC45AnXQLOmFysV5crVu-1">
          <mxGeometry x="751" y="60" width="189" height="40" as="geometry" />
        </mxCell>
        <mxCell id="yC45AnXQLOmFysV5crVu-7" value="" style="group" parent="1" vertex="1" connectable="0">
          <mxGeometry x="49" y="400" width="951" height="120" as="geometry" />
        </mxCell>
        <mxCell id="yC45AnXQLOmFysV5crVu-8" value="Domain" style="shape=umlFrame;whiteSpace=wrap;html=1;pointerEvents=0;width=100;height=30;dashed=1;" parent="yC45AnXQLOmFysV5crVu-7" vertex="1">
          <mxGeometry width="950.9999999999998" height="120" as="geometry" />
        </mxCell>
        <mxCell id="Eyq4GIK9O7bGHYeJGgFn-31" value="EventService" style="swimlane;fontStyle=1;align=center;verticalAlign=top;childLayout=stackLayout;horizontal=1;startSize=26;horizontalStack=0;resizeParent=1;resizeParentMax=0;resizeLast=0;collapsible=1;marginBottom=0;" vertex="1" parent="yC45AnXQLOmFysV5crVu-7">
          <mxGeometry x="121" y="14" width="189" height="42" as="geometry" />
        </mxCell>
        <mxCell id="Eyq4GIK9O7bGHYeJGgFn-32" value="ManagerService" style="swimlane;fontStyle=1;align=center;verticalAlign=top;childLayout=stackLayout;horizontal=1;startSize=26;horizontalStack=0;resizeParent=1;resizeParentMax=0;resizeLast=0;collapsible=1;marginBottom=0;" vertex="1" parent="yC45AnXQLOmFysV5crVu-7">
          <mxGeometry x="121" y="64" width="189" height="40" as="geometry" />
        </mxCell>
        <mxCell id="Eyq4GIK9O7bGHYeJGgFn-33" value="MemberService" style="swimlane;fontStyle=1;align=center;verticalAlign=top;childLayout=stackLayout;horizontal=1;startSize=26;horizontalStack=0;resizeParent=1;resizeParentMax=0;resizeLast=0;collapsible=1;marginBottom=0;" vertex="1" parent="yC45AnXQLOmFysV5crVu-7">
          <mxGeometry x="331" y="14" width="189" height="42" as="geometry" />
        </mxCell>
        <mxCell id="Eyq4GIK9O7bGHYeJGgFn-34" value="NotificationService" style="swimlane;fontStyle=1;align=center;verticalAlign=top;childLayout=stackLayout;horizontal=1;startSize=26;horizontalStack=0;resizeParent=1;resizeParentMax=0;resizeLast=0;collapsible=1;marginBottom=0;" vertex="1" parent="yC45AnXQLOmFysV5crVu-7">
          <mxGeometry x="331" y="64" width="189" height="40" as="geometry" />
        </mxCell>
        <mxCell id="Eyq4GIK9O7bGHYeJGgFn-35" value="PurchaseService" style="swimlane;fontStyle=1;align=center;verticalAlign=top;childLayout=stackLayout;horizontal=1;startSize=26;horizontalStack=0;resizeParent=1;resizeParentMax=0;resizeLast=0;collapsible=1;marginBottom=0;" vertex="1" parent="yC45AnXQLOmFysV5crVu-7">
          <mxGeometry x="541" y="14" width="189" height="42" as="geometry" />
        </mxCell>
        <mxCell id="Eyq4GIK9O7bGHYeJGgFn-36" value="ReviewService" style="swimlane;fontStyle=1;align=center;verticalAlign=top;childLayout=stackLayout;horizontal=1;startSize=26;horizontalStack=0;resizeParent=1;resizeParentMax=0;resizeLast=0;collapsible=1;marginBottom=0;" vertex="1" parent="yC45AnXQLOmFysV5crVu-7">
          <mxGeometry x="541" y="64" width="189" height="40" as="geometry" />
        </mxCell>
        <mxCell id="Eyq4GIK9O7bGHYeJGgFn-37" value="ShoppingCartService" style="swimlane;fontStyle=1;align=center;verticalAlign=top;childLayout=stackLayout;horizontal=1;startSize=26;horizontalStack=0;resizeParent=1;resizeParentMax=0;resizeLast=0;collapsible=1;marginBottom=0;" vertex="1" parent="yC45AnXQLOmFysV5crVu-7">
          <mxGeometry x="751" y="14" width="189" height="42" as="geometry" />
        </mxCell>
        <mxCell id="Eyq4GIK9O7bGHYeJGgFn-38" value="StoreService" style="swimlane;fontStyle=1;align=center;verticalAlign=top;childLayout=stackLayout;horizontal=1;startSize=26;horizontalStack=0;resizeParent=1;resizeParentMax=0;resizeLast=0;collapsible=1;marginBottom=0;" vertex="1" parent="yC45AnXQLOmFysV5crVu-7">
          <mxGeometry x="751" y="64" width="189" height="40" as="geometry" />
        </mxCell>
        <mxCell id="Eyq4GIK9O7bGHYeJGgFn-88" style="edgeStyle=orthogonalEdgeStyle;rounded=0;orthogonalLoop=1;jettySize=auto;html=1;dashed=1;exitX=0;exitY=0;exitDx=75;exitDy=0;exitPerimeter=0;" edge="1" parent="yC45AnXQLOmFysV5crVu-7" source="Eyq4GIK9O7bGHYeJGgFn-87">
          <mxGeometry relative="1" as="geometry">
            <mxPoint x="469" y="110" as="sourcePoint" />
            <mxPoint x="191" y="140" as="targetPoint" />
            <Array as="points">
              <mxPoint x="86" y="140" />
            </Array>
          </mxGeometry>
        </mxCell>
        <mxCell id="yC45AnXQLOmFysV5crVu-9" value="" style="group" parent="1" vertex="1" connectable="0">
          <mxGeometry x="49" y="560" width="951" height="120" as="geometry" />
        </mxCell>
        <mxCell id="yC45AnXQLOmFysV5crVu-10" value="model" style="shape=umlFrame;whiteSpace=wrap;html=1;pointerEvents=0;width=100;height=30;dashed=1;" parent="yC45AnXQLOmFysV5crVu-9" vertex="1">
          <mxGeometry width="950.9999999999998" height="120" as="geometry" />
        </mxCell>
        <mxCell id="Eyq4GIK9O7bGHYeJGgFn-39" value="EventModels" style="swimlane;fontStyle=1;align=center;verticalAlign=top;childLayout=stackLayout;horizontal=1;startSize=26;horizontalStack=0;resizeParent=1;resizeParentMax=0;resizeLast=0;collapsible=1;marginBottom=0;" vertex="1" parent="yC45AnXQLOmFysV5crVu-9">
          <mxGeometry x="121" y="15" width="189" height="42" as="geometry" />
        </mxCell>
        <mxCell id="Eyq4GIK9O7bGHYeJGgFn-40" value="ManagerModels" style="swimlane;fontStyle=1;align=center;verticalAlign=top;childLayout=stackLayout;horizontal=1;startSize=26;horizontalStack=0;resizeParent=1;resizeParentMax=0;resizeLast=0;collapsible=1;marginBottom=0;" vertex="1" parent="yC45AnXQLOmFysV5crVu-9">
          <mxGeometry x="121" y="65" width="189" height="40" as="geometry" />
        </mxCell>
        <mxCell id="Eyq4GIK9O7bGHYeJGgFn-41" value="MemberModels" style="swimlane;fontStyle=1;align=center;verticalAlign=top;childLayout=stackLayout;horizontal=1;startSize=26;horizontalStack=0;resizeParent=1;resizeParentMax=0;resizeLast=0;collapsible=1;marginBottom=0;" vertex="1" parent="yC45AnXQLOmFysV5crVu-9">
          <mxGeometry x="331" y="15" width="189" height="42" as="geometry" />
        </mxCell>
        <mxCell id="Eyq4GIK9O7bGHYeJGgFn-42" value="NotificationModels" style="swimlane;fontStyle=1;align=center;verticalAlign=top;childLayout=stackLayout;horizontal=1;startSize=26;horizontalStack=0;resizeParent=1;resizeParentMax=0;resizeLast=0;collapsible=1;marginBottom=0;" vertex="1" parent="yC45AnXQLOmFysV5crVu-9">
          <mxGeometry x="331" y="65" width="189" height="40" as="geometry" />
        </mxCell>
        <mxCell id="Eyq4GIK9O7bGHYeJGgFn-43" value="PurchaseModels" style="swimlane;fontStyle=1;align=center;verticalAlign=top;childLayout=stackLayout;horizontal=1;startSize=26;horizontalStack=0;resizeParent=1;resizeParentMax=0;resizeLast=0;collapsible=1;marginBottom=0;" vertex="1" parent="yC45AnXQLOmFysV5crVu-9">
          <mxGeometry x="541" y="15" width="189" height="42" as="geometry" />
        </mxCell>
        <mxCell id="Eyq4GIK9O7bGHYeJGgFn-44" value="ReviewModels" style="swimlane;fontStyle=1;align=center;verticalAlign=top;childLayout=stackLayout;horizontal=1;startSize=26;horizontalStack=0;resizeParent=1;resizeParentMax=0;resizeLast=0;collapsible=1;marginBottom=0;" vertex="1" parent="yC45AnXQLOmFysV5crVu-9">
          <mxGeometry x="541" y="65" width="189" height="40" as="geometry" />
        </mxCell>
        <mxCell id="Eyq4GIK9O7bGHYeJGgFn-45" value="ShoppingCartModels" style="swimlane;fontStyle=1;align=center;verticalAlign=top;childLayout=stackLayout;horizontal=1;startSize=26;horizontalStack=0;resizeParent=1;resizeParentMax=0;resizeLast=0;collapsible=1;marginBottom=0;" vertex="1" parent="yC45AnXQLOmFysV5crVu-9">
          <mxGeometry x="751" y="15" width="189" height="42" as="geometry" />
        </mxCell>
        <mxCell id="Eyq4GIK9O7bGHYeJGgFn-46" value="StoreModels" style="swimlane;fontStyle=1;align=center;verticalAlign=top;childLayout=stackLayout;horizontal=1;startSize=26;horizontalStack=0;resizeParent=1;resizeParentMax=0;resizeLast=0;collapsible=1;marginBottom=0;" vertex="1" parent="yC45AnXQLOmFysV5crVu-9">
          <mxGeometry x="751" y="65" width="189" height="40" as="geometry" />
        </mxCell>
        <mxCell id="Eyq4GIK9O7bGHYeJGgFn-3" style="edgeStyle=orthogonalEdgeStyle;rounded=0;orthogonalLoop=1;jettySize=auto;html=1;entryX=0.203;entryY=-0.019;entryDx=0;entryDy=0;entryPerimeter=0;exitX=0.203;exitY=1.025;exitDx=0;exitDy=0;exitPerimeter=0;" edge="1" parent="1" source="yC45AnXQLOmFysV5crVu-2" target="yC45AnXQLOmFysV5crVu-8">
          <mxGeometry relative="1" as="geometry" />
        </mxCell>
        <mxCell id="Eyq4GIK9O7bGHYeJGgFn-4" style="edgeStyle=orthogonalEdgeStyle;rounded=0;orthogonalLoop=1;jettySize=auto;html=1;entryX=0.203;entryY=-0.019;entryDx=0;entryDy=0;entryPerimeter=0;exitX=0.203;exitY=1.025;exitDx=0;exitDy=0;exitPerimeter=0;" edge="1" parent="1">
          <mxGeometry relative="1" as="geometry">
            <mxPoint x="243" y="522" as="sourcePoint" />
            <mxPoint x="243" y="557" as="targetPoint" />
          </mxGeometry>
        </mxCell>
        <mxCell id="Eyq4GIK9O7bGHYeJGgFn-5" value="" style="endArrow=classic;html=1;rounded=0;exitX=0.666;exitY=-0.021;exitDx=0;exitDy=0;exitPerimeter=0;" edge="1" parent="1" source="yC45AnXQLOmFysV5crVu-10">
          <mxGeometry width="50" height="50" relative="1" as="geometry">
            <mxPoint x="600" y="470" as="sourcePoint" />
            <mxPoint x="682" y="520" as="targetPoint" />
          </mxGeometry>
        </mxCell>
        <mxCell id="Eyq4GIK9O7bGHYeJGgFn-6" value="" style="endArrow=classic;html=1;rounded=0;exitX=0.666;exitY=-0.021;exitDx=0;exitDy=0;exitPerimeter=0;" edge="1" parent="1">
          <mxGeometry width="50" height="50" relative="1" as="geometry">
            <mxPoint x="681" y="397" as="sourcePoint" />
            <mxPoint x="681" y="360" as="targetPoint" />
          </mxGeometry>
        </mxCell>
        <mxCell id="Eyq4GIK9O7bGHYeJGgFn-82" value="" style="group" vertex="1" connectable="0" parent="1">
          <mxGeometry x="1017" y="240" width="123" height="120" as="geometry" />
        </mxCell>
        <mxCell id="Eyq4GIK9O7bGHYeJGgFn-83" value="Utility" style="shape=umlFrame;whiteSpace=wrap;html=1;pointerEvents=0;width=100;height=30;dashed=1;" vertex="1" parent="Eyq4GIK9O7bGHYeJGgFn-82">
          <mxGeometry width="130" height="120" as="geometry" />
        </mxCell>
        <mxCell id="yC45AnXQLOmFysV5crVu-13" value="Response" style="swimlane;fontStyle=1;align=center;verticalAlign=top;childLayout=stackLayout;horizontal=1;startSize=26;horizontalStack=0;resizeParent=1;resizeParentMax=0;resizeLast=0;collapsible=1;marginBottom=0;" parent="Eyq4GIK9O7bGHYeJGgFn-82" vertex="1">
          <mxGeometry x="7.296214285714294" y="40.002307692307696" width="108.41571428571429" height="75.6923076923077" as="geometry" />
        </mxCell>
        <mxCell id="Eyq4GIK9O7bGHYeJGgFn-86" value="" style="endArrow=classic;startArrow=classic;html=1;rounded=0;exitX=0.942;exitY=0.005;exitDx=0;exitDy=0;exitPerimeter=0;entryX=0.491;entryY=-0.004;entryDx=0;entryDy=0;entryPerimeter=0;" edge="1" parent="1" source="yC45AnXQLOmFysV5crVu-8" target="Eyq4GIK9O7bGHYeJGgFn-62">
          <mxGeometry width="50" height="50" relative="1" as="geometry">
            <mxPoint x="1000" y="480" as="sourcePoint" />
            <mxPoint x="1050" y="430" as="targetPoint" />
            <Array as="points">
              <mxPoint x="945" y="380" />
              <mxPoint x="1080" y="380" />
            </Array>
          </mxGeometry>
        </mxCell>
        <mxCell id="Eyq4GIK9O7bGHYeJGgFn-87" value="Domain to Model connection are not bound to their name, every service can communicate with every model" style="shape=note;size=20;whiteSpace=wrap;html=1;fillColor=#fff2cc;strokeColor=#d6b656;" vertex="1" parent="1">
          <mxGeometry x="60" y="730" width="170" height="70" as="geometry" />
        </mxCell>
      </root>
    </mxGraphModel>
  </diagram>
</mxfile>
